{"title":"Pain and Gain 2013 BRRip x264 AAC-KiSSMYACE","uid":8802847,"size":1327341884,"categoryP":"video","categoryS":"movies","magnet":"?xt=urn:btih:7d14877899168e4ba7705b51c530decc8bd856da&amp;dn=Pain+and+Gain+2013+BRRip+x264+AAC-KiSSMYACE&amp;tr=udp%3A%2F%2Ftracker.openbittorrent.com%3A80&amp;tr=udp%3A%2F%2Fopen.demonii.com%3A1337&amp;tr=udp%3A%2F%2Ftracker.coppersurfer.tk%3A6969&amp;tr=udp%3A%2F%2Fexodus.desync.com%3A6969","seeders":2,"leechers":2,"uploader":"xxxlavalxxx","files":-1,"time":1376251657,"description":" &lt;a href=&quot;\nhttp://www.imdb.com/title/tt1980209/&quot; rel=&quot;nofollow&quot; target=&quot;_NEW&quot;&gt;\nhttp://www.imdb.com/title/tt1980209/&lt;/a&gt;\n\n\nA trio of bodybuilders in Florida get caught up in an extortion ring and a kidnapping scheme that goes terribly wrong. \n\n\n\nDirector:\n Michael Bay \n\nWriters:\n Christopher Markus (screenplay), Stephen McFeely (screenplay)\n\nStars:\n Mark Wahlberg, Dwayne Johnson, Anthony Mackie \n\nGenres:\n  Action |  Comedy |  Crime |  Drama |  Thriller \n\nCountry:\n USA \n\nLanguage:\n English \n\n\nSource: 720p.BluRay.X264-AMIABLE [THANKS]\n &lt;a href=&quot;\nhttp://www.imdb.com/title/tt1980209/&quot; rel=&quot;nofollow&quot; target=&quot;_NEW&quot;&gt;\nhttp://www.imdb.com/title/tt1980209/&lt;/a&gt;\n\n A trio of bodybuilders in Florida get caught up in an extortion ring and a kidnapping scheme that goes terribly wrong.\n\n General\n Complete name                            : Pain and Gain 2013 BRRip x264 AAC-KiSSMYACE.mp4\n Format                                   : MPEG-4\n Format profile                           : Base Media\n Codec ID                                 : isom\n File size                                : 1.22 GiB\n Duration                                 : 2h 9mn\n Overall bit rate mode                    : Variable\n Overall bit rate                         : 1 349 Kbps\n Encoded date                             : UTC 2013-08-11 16:36:33\n Tagged date                              : UTC 2013-08-11 16:36:33\n\n Video\n ID                                       : 1\n Format                                   : AVC\n Format/Info                              : Advanced Video Codec\n Format profile                           : &lt;a class=&quot;__cf_email__&quot; href=&quot;/cdn-cgi/l/email-protection&quot; data-cfemail=&quot;0d45646a654d4139233c&quot;&gt;[email&amp;#160;protected]&lt;/a&gt;&lt;script cf-hash='f9e31' type=&quot;text/javascript&quot;&gt;\n/* &lt;![CDATA[ */!function(){try{var t=&quot;currentScript&quot;in document?document.currentScript:function(){for(var t=document.getElementsByTagName(&quot;script&quot;),e=t.length;e--;)if(t[e].getAttribute(&quot;cf-hash&quot;))return t[e]}();if(t&amp;&amp;t.previousSibling){var e,r,n,i,c=t.previousSibling,a=c.getAttribute(&quot;data-cfemail&quot;);if(a){for(e=&quot;&quot;,r=parseInt(a.substr(0,2),16),n=2;a.length-n;n+=2)i=parseInt(a.substr(n,2),16)^r,e+=String.fromCharCode(i);e=document.createTextNode(e),c.parentNode.replaceChild(e,c)}}}catch(u){}}();/* ]]&gt; */&lt;/script&gt;\n Format settings, CABAC                   : Yes\n Format settings, ReFrames                : 3 frames\n Codec ID                                 : avc1\n Codec ID/Info                            : Advanced Video Coding\n Duration                                 : 2h 9mn\n Bit rate mode                            : Variable\n Bit rate                                 : 1 005 Kbps\n Maximum bit rate                         : 40.0 Mbps\n Width                                    : 720 pixels\n Height                                   : 304 pixels\n Display aspect ratio                     : 2.35:1\n Frame rate mode                          : Constant\n Frame rate                               : 23.976 fps\n Color space                              : YUV\n Chroma subsampling                       : 4:2:0\n Bit depth                                : 8 bits\n Scan type                                : Progressive\n Bits/(Pixel*Frame)                       : 0.192\n Stream size                              : 932 MiB (75%)\n Writing library                          : x264 core 135 r2345 f0c1c53\n\n Audio\n ID                                       : 2\n Format                                   : AAC\n Format/Info                              : Advanced Audio Codec\n Format profile                           : LC\n Codec ID                                 : 40\n Duration                                 : 2h 9mn\n Bit rate mode                            : Variable\n Bit rate                                 : 339 Kbps\n Maximum bit rate                         : 432 Kbps\n Channel(s)                               : 6 channels\n Channel positions                        : Front: L C R, Side: L R, LFE\n Sampling rate                            : 48.0 KHz\n Compression mode                         : Lossy\n Stream size                              : 315 MiB (25%)\n Language                                 : English\n Encoded date                             : UTC 2013-08-11 15:37:46\n Tagged date                              : UTC 2013-08-11 16:38:20\n\n\n &lt;a href=&quot;\nhttp://bayimg.com/AaOHMaaEe&quot; rel=&quot;nofollow&quot; target=&quot;_NEW&quot;&gt;\nhttp://bayimg.com/AaOHMaaEe&lt;/a&gt; &lt;a href=&quot;\nhttp://bayimg.com/AAOhNAAeE&quot; rel=&quot;nofollow&quot; target=&quot;_NEW&quot;&gt;\nhttp://bayimg.com/AAOhNAAeE&lt;/a&gt;\n","torrent":{"xt":"urn:btih:7d14877899168e4ba7705b51c530decc8bd856da","amp;dn":"Pain+and+Gain+2013+BRRip+x264+AAC-KiSSMYACE","amp;tr":["udp%3A%2F%2Ftracker.openbittorrent.com%3A80","udp%3A%2F%2Fopen.demonii.com%3A1337","udp%3A%2F%2Ftracker.coppersurfer.tk%3A6969","udp%3A%2F%2Fexodus.desync.com%3A6969"],"infoHash":"7d14877899168e4ba7705b51c530decc8bd856da","infoHashBuffer":{"type":"Buffer","data":[125,20,135,120,153,22,142,75,167,112,91,81,197,48,222,204,139,216,86,218]},"announce":[],"urlList":[]}}